{
  "accessors": [
    {
      "bufferView": 2,
      "componentType": 5126,
      "count": 24576,
      "max": [
        1651.3087158203125,
        565.1279907226563,
        962.028076171875
      ],
      "min": [
        -1322.137451171875,
        -958.7862548828125,
        -1161.4564208984375
      ],
      "type": "VEC3"
    },
    {
      "bufferView": 2,
      "byteOffset": 294912,
      "componentType": 5126,
      "count": 24576,
      "max": [
        0.9999902248382568,
        0.9999236464500427,
        0.9999755620956421
      ],
      "min": [
        -0.9999553561210632,
        -0.9999417662620544,
        -0.9999446272850037
      ],
      "type": "VEC3"
    },
    {
      "bufferView": 3,
      "componentType": 5126,
      "count": 24576,
      "max": [
        0.9999571442604065,
        0.9999778866767883,
        0.9988001585006714,
        1.0
      ],
      "min": [
        -0.999649167060852,
        -0.9999648928642273,
        -0.9998919367790222,
        1.0
      ],
      "type": "VEC4"
    },
    {
      "bufferView": 1,
      "componentType": 5126,
      "count": 24576,
      "max": [
        0.9932524561882019,
        0.9958785772323608
      ],
      "min": [
        0.005205681547522545,
        0.004948338493704796
      ],
      "type": "VEC2"
    },
    {
      "bufferView": 0,
      "componentType": 5125,
      "count": 36864,
      "type": "SCALAR"
    },
    {
      "bufferView": 2,
      "byteOffset": 589824,
      "componentType": 5126,
      "count": 3888,
      "max": [
        1125.44677734375,
        798.8240966796875,
        1151.3699951171875
      ],
      "min": [
        -1425.0032958984375,
        -704.4886474609375,
        -1169.8885498046875
      ],
      "type": "VEC3"
    },
    {
      "bufferView": 2,
      "byteOffset": 636480,
      "componentType": 5126,
      "count": 3888,
      "max": [
        0.9982603788375854,
        0.9996992945671082,
        0.9998023509979248
      ],
      "min": [
        -0.9999726414680481,
        -0.9997049570083618,
        -0.9988371133804321
      ],
      "type": "VEC3"
    },
    {
      "bufferView": 3,
      "byteOffset": 393216,
      "componentType": 5126,
      "count": 3888,
      "max": [
        0.9999004602432251,
        0.9999311566352844,
        0.9997023940086365,
        1.0
      ],
      "min": [
        -0.9993849396705627,
        -0.9992967844009399,
        -0.999976634979248,
        1.0
      ],
      "type": "VEC4"
    },
    {
      "bufferView": 1,
      "byteOffset": 196608,
      "componentType": 5126,
      "count": 3888,
      "max": [
        0.9901959896087646,
        0.9888030290603638
      ],
      "min": [
        0.00980400014668703,
        0.00980400014668703
      ],
      "type": "VEC2"
    },
    {
      "bufferView": 0,
      "byteOffset": 147456,
      "componentType": 5125,
      "count": 18432,
      "type": "SCALAR"
    },
    {
      "bufferView": 2,
      "byteOffset": 683136,
      "componentType": 5126,
      "count": 36408,
      "max": [
        1091.046875,
        889.4085083007813,
        1440.874755859375
      ],
      "min": [
        -380.445068359375,
        -1058.5712890625,
        -1197.4583740234375
      ],
      "type": "VEC3"
    },
    {
      "bufferView": 2,
      "byteOffset": 1120032,
      "componentType": 5126,
      "count": 36408,
      "max": [
        0.9997950196266174,
        0.9997444748878479,
        0.9995081424713135
      ],
      "min": [
        -0.999807596206665,
        -0.9998716115951538,
        -0.9997667670249939
      ],
      "type": "VEC3"
    },
    {
      "bufferView": 3,
      "byteOffset": 455424,
      "componentType": 5126,
      "count": 36408,
      "max": [
        0.9999051094055176,
        0.999971866607666,
        0.9999799132347107,
        1.0
      ],
      "min": [
        -0.9999039173126221,
        -0.9999609589576721,
        -0.9999006986618042,
        1.0
      ],
      "type": "VEC4"
    },
    {
      "bufferView": 1,
      "byteOffset": 227712,
      "componentType": 5126,
      "count": 36408,
      "max": [
        0.9901970028877258,
        0.9878050088882446
      ],
      "min": [
        0.009802999906241894,
        0.009802999906241894
      ],
      "type": "VEC2"
    },
    {
      "bufferView": 0,
      "byteOffset": 221184,
      "componentType": 5125,
      "count": 53784,
      "type": "SCALAR"
    },
    {
      "bufferView": 2,
      "byteOffset": 1556928,
      "componentType": 5126,
      "count": 43410,
      "max": [
        1203.294921875,
        978.1420288085938,
        1163.064208984375
      ],
      "min": [
        -1104.046142578125,
        -917.771484375,
        -799.6207885742188
      ],
      "type": "VEC3"
    },
    {
      "bufferView": 2,
      "byteOffset": 2077848,
      "componentType": 5126,
      "count": 43410,
      "max": [
        0.9999908208847046,
        0.9999699592590332,
        0.9998758435249329
      ],
      "min": [
        -0.9999660849571228,
        -0.9999185800552368,
        -0.9993236064910889
      ],
      "type": "VEC3"
    },
    {
      "bufferView": 3,
      "byteOffset": 1037952,
      "componentType": 5126,
      "count": 43410,
      "max": [
        0.9997995495796204,
        0.9997064471244812,
        0.9999958276748657,
        1.0
      ],
      "min": [
        -0.9999828934669495,
        -0.9999082684516907,
        -0.9999932646751404,
        1.0
      ],
      "type": "VEC4"
    },
    {
      "bufferView": 1,
      "byteOffset": 518976,
      "componentType": 5126,
      "count": 43410,
      "max": [
        0.9594110250473022,
        0.9905009865760803
      ],
      "min": [
        0.009499000385403633,
        0.009499000385403633
      ],
      "type": "VEC2"
    },
    {
      "bufferView": 0,
      "byteOffset": 436320,
      "componentType": 5125,
      "count": 64170,
      "type": "SCALAR"
    },
    {
      "bufferView": 2,
      "byteOffset": 2598768,
      "componentType": 5126,
      "count": 26811,
      "max": [
        1736.402099609375,
        766.9847412109375,
        1693.963134765625
      ],
      "min": [
        -1029.044677734375,
        -1024.478271484375,
        -934.2119750976563
      ],
      "type": "VEC3"
    },
    {
      "bufferView": 2,
      "byteOffset": 2920500,
      "componentType": 5126,
      "count": 26811,
      "max": [
        0.9999229311943054,
        0.9999204277992249,
        0.9999518394470215
      ],
      "min": [
        -0.99998539686203,
        -0.9999856352806091,
        -0.9999499917030334
      ],
      "type": "VEC3"
    },
    {
      "bufferView": 3,
      "byteOffset": 1732512,
      "componentType": 5126,
      "count": 26811,
      "max": [
        0.9999707937240601,
        0.9998952150344849,
        0.9999377727508545,
        1.0
      ],
      "min": [
        -0.9998483061790466,
        -0.999976396560669,
        -0.999747097492218,
        1.0
      ],
      "type": "VEC4"
    },
    {
      "bufferView": 1,
      "byteOffset": 866256,
      "componentType": 5126,
      "count": 26811,
      "max": [
        0.9901970028877258,
        0.9884120225906372
      ],
      "min": [
        0.009802999906241894,
        0.009802999906241894
      ],
      "type": "VEC2"
    },
    {
      "bufferView": 0,
      "byteOffset": 693000,
      "componentType": 5125,
      "count": 138834,
      "type": "SCALAR"
    }
  ],
  "asset": {
    "extras": {
      "author": "Random Polygons (https://sketchfab.com/randompolygons)",
      "license": "SKETCHFAB Editorial (https://sketchfab.com/licenses)",
      "source": "https://sketchfab.com/3d-models/asteroid-pack-low-poly-game-model-5094c0321c4b49c889fe7e98a8b496fe",
      "title": "Asteroid pack - Low-poly Game Model"
    },
    "generator": "Sketchfab-12.66.0",
    "version": "2.0"
  },
  "bufferViews": [
    {
      "buffer": 0,
      "byteLength": 1248336,
      "name": "floatBufferViews",
      "target": 34963
    },
    {
      "buffer": 0,
      "byteLength": 1080744,
      "byteOffset": 1248336,
      "byteStride": 8,
      "name": "floatBufferViews",
      "target": 34962
    },
    {
      "buffer": 0,
      "byteLength": 3242232,
      "byteOffset": 2329080,
      "byteStride": 12,
      "name": "floatBufferViews",
      "target": 34962
    },
    {
      "buffer": 0,
      "byteLength": 2161488,
      "byteOffset": 5571312,
      "byteStride": 16,
      "name": "floatBufferViews",
      "target": 34962
    }
  ],
  "buffers": [
    {
      "byteLength": 7732800,
      "uri": "scene.bin"
    }
  ],
  "images": [
    {
      "uri": "textures/Asteroid_1_MAT_baseColor.png"
    },
    {
      "uri": "textures/Asteroid_1_MAT_metallicRoughness.png"
    },
    {
      "uri": "textures/Asteroid_1_MAT_normal.png"
    },
    {
      "uri": "textures/Asteroid_2_MAT_baseColor.png"
    },
    {
      "uri": "textures/Asteroid_2_MAT_metallicRoughness.png"
    },
    {
      "uri": "textures/Asteroid_2_MAT_normal.png"
    },
    {
      "uri": "textures/Asteroid_3_MAT_baseColor.png"
    },
    {
      "uri": "textures/Asteroid_3_MAT_metallicRoughness.png"
    },
    {
      "uri": "textures/Asteroid_3_MAT_normal.png"
    },
    {
      "uri": "textures/Asteroid_4_MAT_baseColor.png"
    },
    {
      "uri": "textures/Asteroid_4_MAT_metallicRoughness.png"
    },
    {
      "uri": "textures/Asteroid_4_MAT_normal.png"
    },
    {
      "uri": "textures/Asteroid_5_MAT_baseColor.png"
    },
    {
      "uri": "textures/Asteroid_5_MAT_metallicRoughness.png"
    },
    {
      "uri": "textures/Asteroid_5_MAT_normal.png"
    }
  ],
  "materials": [
    {
      "doubleSided": true,
      "name": "Asteroid_1_MAT",
      "normalTexture": {
        "index": 2
      },
      "occlusionTexture": {
        "index": 1
      },
      "pbrMetallicRoughness": {
        "baseColorTexture": {
          "index": 0
        },
        "metallicRoughnessTexture": {
          "index": 1
        }
      }
    },
    {
      "doubleSided": true,
      "name": "Asteroid_2_MAT",
      "normalTexture": {
        "index": 5
      },
      "occlusionTexture": {
        "index": 4
      },
      "pbrMetallicRoughness": {
        "baseColorTexture": {
          "index": 3
        },
        "metallicRoughnessTexture": {
          "index": 4
        }
      }
    },
    {
      "doubleSided": true,
      "name": "Asteroid_3_MAT",
      "normalTexture": {
        "index": 8
      },
      "occlusionTexture": {
        "index": 7
      },
      "pbrMetallicRoughness": {
        "baseColorTexture": {
          "index": 6
        },
        "metallicRoughnessTexture": {
          "index": 7
        }
      }
    },
    {
      "doubleSided": true,
      "name": "Asteroid_4_MAT",
      "normalTexture": {
        "index": 11
      },
      "occlusionTexture": {
        "index": 10
      },
      "pbrMetallicRoughness": {
        "baseColorTexture": {
          "index": 9
        },
        "metallicRoughnessTexture": {
          "index": 10
        }
      }
    },
    {
      "doubleSided": true,
      "name": "Asteroid_5_MAT",
      "normalTexture": {
        "index": 14
      },
      "occlusionTexture": {
        "index": 13
      },
      "pbrMetallicRoughness": {
        "baseColorTexture": {
          "index": 12
        },
        "metallicRoughnessTexture": {
          "index": 13
        }
      }
    }
  ],
  "meshes": [
    {
      "name": "Asteroids_1_Asteroid_1_MAT_0",
      "primitives": [
        {
          "attributes": {
            "NORMAL": 1,
            "POSITION": 0,
            "TANGENT": 2,
            "TEXCOORD_0": 3
          },
          "indices": 4,
          "material": 0,
          "mode": 4
        }
      ]
    },
    {
      "name": "Asteroids_2_Asteroid_2_MAT_0",
      "primitives": [
        {
          "attributes": {
            "NORMAL": 6,
            "POSITION": 5,
            "TANGENT": 7,
            "TEXCOORD_0": 8
          },
          "indices": 9,
          "material": 1,
          "mode": 4
        }
      ]
    },
    {
      "name": "Asteroids_3_Asteroid_3_MAT_0",
      "primitives": [
        {
          "attributes": {
            "NORMAL": 11,
            "POSITION": 10,
            "TANGENT": 12,
            "TEXCOORD_0": 13
          },
          "indices": 14,
          "material": 2,
          "mode": 4
        }
      ]
    },
    {
      "name": "Asteroids_4_Asteroid_4_MAT_0",
      "primitives": [
        {
          "attributes": {
            "NORMAL": 16,
            "POSITION": 15,
            "TANGENT": 17,
            "TEXCOORD_0": 18
          },
          "indices": 19,
          "material": 3,
          "mode": 4
        }
      ]
    },
    {
      "name": "Asteroids_5_Asteroid_5_MAT_0",
      "primitives": [
        {
          "attributes": {
            "NORMAL": 21,
            "POSITION": 20,
            "TANGENT": 22,
            "TEXCOORD_0": 23
          },
          "indices": 24,
          "material": 4,
          "mode": 4
        }
      ]
    }
  ],
  "nodes": [
    {
      "children": [
        1
      ],
      "matrix": [
        1.0,
        0.0,
        0.0,
        0.0,
        0.0,
        2.220446049250313e-16,
        -1.0,
        0.0,
        0.0,
        1.0,
        2.220446049250313e-16,
        0.0,
        0.0,
        0.0,
        0.0,
        1.0
      ],
      "name": "Sketchfab_model"
    },
    {
      "children": [
        2
      ],
      "matrix": [
        1.0,
        0.0,
        0.0,
        0.0,
        0.0,
        0.0,
        1.0,
        0.0,
        0.0,
        -1.0,
        0.0,
        0.0,
        0.0,
        0.0,
        0.0,
        1.0
      ],
      "name": "9cc5972363fe4519b855836b5dd111c7.fbx"
    },
    {
      "children": [
        3,
        5,
        7,
        9,
        11,
        13
      ],
      "name": "RootNode"
    },
    {
      "children": [
        4
      ],
      "matrix": [
        -10.033385084427465,
        -28.824387840152056,
        -31.6292373063649,
        0.0,
        -8.71562700217828,
        33.182487381671024,
        -27.475137494076463,
        0.0,
        41.8962030845368,
        -4.3918512625468545e-14,
        -13.290258473540332,
        0.0,
        759.9669189453125,
        1626.7880859375,
        1953.2764892578125,
        1.0
      ],
      "name": "shotCam"
    },
    {
      "name": "Object_4"
    },
    {
      "children": [
        6
      ],
      "name": "Asteroids_1"
    },
    {
      "mesh": 0,
      "name": "Asteroids_1_Asteroid_1_MAT_0"
    },
    {
      "children": [
        8
      ],
      "name": "Asteroids_2"
    },
    {
      "mesh": 1,
      "name": "Asteroids_2_Asteroid_2_MAT_0"
    },
    {
      "children": [
        10
      ],
      "name": "Asteroids_3"
    },
    {
      "mesh": 2,
      "name": "Asteroids_3_Asteroid_3_MAT_0"
    },
    {
      "children": [
        12
      ],
      "name": "Asteroids_4"
    },
    {
      "mesh": 3,
      "name": "Asteroids_4_Asteroid_4_MAT_0"
    },
    {
      "children": [
        14
      ],
      "name": "Asteroids_5"
    },
    {
      "mesh": 4,
      "name": "Asteroids_5_Asteroid_5_MAT_0"
    }
  ],
  "samplers": [
    {
      "magFilter": 9729,
      "minFilter": 9987,
      "wrapS": 10497,
      "wrapT": 10497
    }
  ],
  "scene": 0,
  "scenes": [
    {
      "name": "Sketchfab_Scene",
      "nodes": [
        0
      ]
    }
  ],
  "textures": [
    {
      "sampler": 0,
      "source": 0
    },
    {
      "sampler": 0,
      "source": 1
    },
    {
      "sampler": 0,
      "source": 2
    },
    {
      "sampler": 0,
      "source": 3
    },
    {
      "sampler": 0,
      "source": 4
    },
    {
      "sampler": 0,
      "source": 5
    },
    {
      "sampler": 0,
      "source": 6
    },
    {
      "sampler": 0,
      "source": 7
    },
    {
      "sampler": 0,
      "source": 8
    },
    {
      "sampler": 0,
      "source": 9
    },
    {
      "sampler": 0,
      "source": 10
    },
    {
      "sampler": 0,
      "source": 11
    },
    {
      "sampler": 0,
      "source": 12
    },
    {
      "sampler": 0,
      "source": 13
    },
    {
      "sampler": 0,
      "source": 14
    }
  ]
}
